<?xml version="1.0" encoding="UTF-8"?>
<svg id="Layer_2" data-name="Layer 2" xmlns="http://www.w3.org/2000/svg" viewBox="0 0 65.29 65.29">
  <defs>
    <style>
      .cls-1 {
        isolation: isolate;
        opacity: .1;
      }

      .cls-1, .cls-2 {
        fill: #3381ff;
      }
    </style>
  </defs>
  <g id="Layer_2-2" data-name="Layer 2">
    <rect class="cls-1" width="65.29" height="65.29" rx="23" ry="23"/>
    <path class="cls-2" d="M49.29,22.93c-.51-1.69-1.34-3.27-2.51-4.61-1.09-1.22-2.43-2.2-3.95-2.82-2.47-.93-5.13-1.19-7.74-.72-.74.14-1.48.35-2.18.62-.62.23-1.22.52-1.81.87-.51.31-.97.66-1.42,1.03-.95.8-1.79,1.75-2.43,2.82h-.16c-.08-1.24-.33-2.47-.74-3.66-1.19-3.52-5.02-5.42-8.55-4.24-3.54,1.19-5.46,5.04-4.28,8.57.93,2.78,3.54,4.63,6.45,4.63.17,0,.37-.04.54-.06v22.49c-.06.95.27,1.89.89,2.59.76.66,1.75.99,2.76.93,1.01.08,2-.25,2.76-.93.64-.7.97-1.63.89-2.59v-21.23c.52-1.03,1.19-1.96,1.98-2.82.35-.37.72-.72,1.11-1.05.45-.33.91-.64,1.4-.89.52-.27,1.07-.49,1.61-.64.6-.17,1.22-.27,1.85-.27,1.01-.02,2.02.17,2.96.54.87.35,1.63.93,2.2,1.67.66.86,1.13,1.85,1.36,2.9.33,1.38.49,2.78.47,4.2v17.6c-.06.95.27,1.89.89,2.59.76.66,1.75.99,2.76.93,1.01.08,2-.25,2.76-.93.64-.7.97-1.63.89-2.59v-18.64c.1-2.12-.17-4.26-.8-6.3h.04Z"/>
  </g>
</svg>