<?xml version="1.0" encoding="UTF-8"?>
<svg id="Layer_2" data-name="Layer 2" xmlns="http://www.w3.org/2000/svg" viewBox="0 0 233.36 65.29">
  <defs>
    <style>
      .cls-1 {
        fill: #202021;
      }

      .cls-2 {
        opacity: .1;
      }

      .cls-2, .cls-3 {
        fill: #3381ff;
      }
    </style>
  </defs>
  <g id="Layer_1-2" data-name="Layer 1">
    <rect class="cls-2" y="0" width="65.29" height="65.29" rx="23" ry="23"/>
    <path class="cls-3" d="M49.29,22.93c-.51-1.69-1.34-3.27-2.51-4.61-1.09-1.22-2.43-2.2-3.95-2.82-2.47-.93-5.13-1.19-7.74-.72-.74.14-1.48.35-2.18.62-.62.23-1.22.52-1.81.87-.51.31-.97.66-1.42,1.03-.95.8-1.79,1.75-2.43,2.82h-.16c-.08-1.24-.33-2.47-.74-3.66-1.19-3.52-5.02-5.42-8.55-4.24-3.54,1.19-5.46,5.04-4.28,8.57.93,2.78,3.54,4.63,6.45,4.63.17,0,.37-.04.54-.06v22.49c-.06.95.27,1.89.89,2.59.76.66,1.75.99,2.76.93,1.01.08,2-.25,2.76-.93.64-.7.97-1.63.89-2.59v-21.23c.52-1.03,1.19-1.96,1.98-2.82.35-.37.72-.72,1.11-1.05.45-.33.91-.64,1.4-.89.52-.27,1.07-.49,1.61-.64.6-.17,1.22-.27,1.85-.27,1.01-.02,2.02.17,2.96.54.87.35,1.63.93,2.2,1.67.66.86,1.13,1.85,1.36,2.9.33,1.38.49,2.78.47,4.2v17.6c-.06.95.27,1.89.89,2.59.76.66,1.75.99,2.76.93,1.01.08,2-.25,2.76-.93.64-.7.97-1.63.89-2.59v-18.64c.1-2.12-.17-4.26-.8-6.3Z"/>
    <g>
      <path class="cls-1" d="M107.18,25.61c-.04-.62.17-1.22.57-1.69.5-.43,1.16-.65,1.82-.58.66-.06,1.31.15,1.82.58.41.46.62,1.07.58,1.69v11.53c-.14,1.64.28,3.28,1.18,4.65.8.97,2.01,1.51,3.27,1.46.42,0,.83-.05,1.23-.15.36-.09.71-.23,1.03-.41.31-.18.61-.38.88-.61.27-.22.52-.46.75-.71.51-.55.94-1.18,1.27-1.86v-13.9c-.04-.62.18-1.23.58-1.69.5-.43,1.14-.65,1.8-.58.66-.06,1.31.15,1.82.58.41.46.62,1.07.58,1.69v19.44c.04.57-.15,1.14-.52,1.58-.38.39-.93.6-1.47.56-.28,0-.57-.04-.84-.13-.24-.08-.46-.2-.64-.38-.19-.18-.33-.41-.41-.65-.1-.29-.19-.58-.23-.89l-.19-1.39h-.06c-.44.7-.99,1.31-1.61,1.84-.29.24-.61.47-.93.67-.37.23-.78.42-1.18.57-.46.18-.93.32-1.41.41-.55.11-1.09.17-1.65.17-1.14.03-2.27-.19-3.34-.64-.98-.42-1.84-1.04-2.54-1.84-.74-.88-1.3-1.91-1.61-3.01-.39-1.35-.58-2.73-.56-4.13v-12.19h.01Z"/>
      <path class="cls-1" d="M131.16,27.36c-.18-.51-.29-.88-.34-1.08-.05-.2-.08-.42-.08-.64,0-.36.08-.7.24-1,.17-.29.37-.55.64-.75.25-.2.55-.37.85-.47.31-.1.61-.15.93-.15.29,0,.58.05.86.15.23.09.44.24.61.42.18.19.31.42.38.66.1.28.23.66.41,1.16l4.32,12.94c.17.48.29.92.41,1.32.11.39.22.75.31,1.07.08.34.17.65.23.93h.08c.06-.28.15-.58.23-.95.06-.32.17-.66.29-1.05s.27-.84.42-1.32l4.28-13.04c.15-.41.27-.78.37-1.03.08-.24.22-.47.38-.66s.37-.34.61-.42c.28-.1.57-.15.86-.15s.6.05.88.14c.29.09.56.23.8.41.23.19.43.42.57.69.15.29.24.62.23.95,0,.19-.03.38-.06.57-.08.33-.18.66-.31.98l-5.81,16.45c-.19.57-.42,1.13-.67,1.68-.18.38-.41.75-.69,1.07-.14.15-.31.28-.47.41-.18.11-.37.22-.56.29-.23.08-.46.14-.7.18-.29.05-.57.06-.86.06s-.56-.03-.84-.06c-.24-.04-.47-.1-.7-.18-.2-.06-.39-.17-.57-.28s-.34-.25-.48-.41c-.28-.33-.51-.7-.69-1.08-.27-.55-.48-1.11-.67-1.69l-5.68-16.09Z"/>
      <path class="cls-1" d="M153.42,35.65c-.03-1.8.24-3.6.79-5.31.47-1.46,1.23-2.81,2.25-3.95.98-1.08,2.19-1.92,3.53-2.47,1.46-.6,3.04-.89,4.61-.86,1.47-.03,2.94.27,4.3.84,1.27.53,2.41,1.35,3.36,2.38.97,1.08,1.7,2.35,2.19,3.72.53,1.55.8,3.19.79,4.83.03,1.8-.24,3.6-.8,5.31-.47,1.46-1.23,2.81-2.24,3.97-.97,1.08-2.17,1.93-3.52,2.47-1.46.58-3.04.88-4.61.85-1.47.03-2.95-.27-4.31-.84-1.28-.53-2.43-1.35-3.37-2.38-.97-1.08-1.7-2.35-2.19-3.72-.53-1.55-.8-3.19-.78-4.83ZM158.33,35.18c-.03,1.19.14,2.38.47,3.52.27.93.7,1.79,1.3,2.55.51.66,1.17,1.19,1.92,1.56,1.5.7,3.23.71,4.73.03.75-.36,1.4-.88,1.89-1.54.57-.76.99-1.61,1.25-2.53.32-1.14.47-2.31.46-3.51.01-1.18-.14-2.36-.48-3.51-.27-.93-.71-1.79-1.3-2.57-.51-.66-1.17-1.19-1.91-1.56-.74-.36-1.54-.55-2.35-.53-.81,0-1.63.18-2.36.52-.74.36-1.39.89-1.89,1.54-.57.75-1,1.6-1.25,2.52-.34,1.14-.5,2.33-.47,3.51Z"/>
      <path class="cls-1" d="M180.16,17.95c-.04-.62.18-1.23.58-1.69.5-.43,1.14-.65,1.8-.58.66-.05,1.31.15,1.8.58.42.46.64,1.07.58,1.69v21.91c-.01.53.04,1.07.13,1.59.05.36.17.69.34,1,.13.22.31.39.53.51.22.1.46.15.7.15.2,0,.41-.01.61-.04.18-.03.34-.04.52-.04.17,0,.34.04.5.11.15.06.29.17.39.31.11.15.2.32.28.5.08.2.11.42.11.65.01.32-.05.64-.17.93-.1.24-.24.46-.42.65-.13.15-.28.29-.44.39-.2.14-.42.25-.65.34-.28.1-.58.19-.88.24-.39.08-.79.1-1.18.1-1.44.1-2.85-.44-3.85-1.47-.98-1.28-1.45-2.88-1.32-4.49v-23.35h.01Z"/>
      <path class="cls-1" d="M191.97,35.65c-.03-1.8.24-3.6.79-5.31.47-1.46,1.23-2.81,2.25-3.95.98-1.08,2.19-1.92,3.53-2.47,1.46-.6,3.04-.89,4.61-.86,1.47-.03,2.94.27,4.3.84,1.27.55,2.41,1.35,3.36,2.38.97,1.08,1.7,2.35,2.19,3.72.53,1.55.8,3.19.79,4.83.03,1.8-.24,3.6-.79,5.31-.47,1.46-1.23,2.81-2.24,3.97-.97,1.08-2.17,1.93-3.52,2.47-1.46.58-3.04.88-4.61.85-1.47.03-2.95-.27-4.31-.84-1.28-.55-2.43-1.35-3.37-2.38-.97-1.08-1.7-2.35-2.19-3.72-.55-1.55-.81-3.19-.79-4.83ZM196.88,35.18c-.03,1.19.14,2.38.47,3.52.27.93.7,1.79,1.3,2.55,1.56,2.02,4.33,2.69,6.65,1.59.75-.36,1.4-.88,1.89-1.54.57-.76.99-1.61,1.25-2.53.32-1.14.47-2.31.46-3.51.01-1.18-.14-2.36-.48-3.51-.27-.93-.7-1.8-1.3-2.57-.51-.66-1.17-1.19-1.91-1.56-.74-.36-1.54-.55-2.35-.53-.81,0-1.63.18-2.36.52-.74.36-1.39.89-1.89,1.54-.57.75-1,1.6-1.25,2.52-.34,1.14-.5,2.33-.47,3.51Z"/>
      <path class="cls-1" d="M217.55,30.11c-.01-.95.18-1.89.53-2.77.36-.86.93-1.64,1.65-2.24.8-.67,1.73-1.18,2.72-1.5,1.22-.38,2.49-.57,3.76-.55.7-.01,1.39.04,2.07.14.53.08,1.07.2,1.58.37.39.13.78.29,1.13.5.25.14.47.32.67.52.22.22.38.47.48.75.1.29.14.58.14.89,0,.23-.04.47-.13.69-.08.19-.19.38-.33.53s-.31.27-.5.34c-.2.09-.42.13-.64.13-.28-.01-.57-.06-.84-.15-.31-.1-.64-.22-.99-.34-.42-.15-.84-.27-1.27-.34-.55-.1-1.12-.15-1.68-.15-.56-.01-1.12.05-1.66.19-.41.11-.8.29-1.14.55-.28.22-.51.5-.66.81-.14.32-.2.66-.2,1.02-.01.51.15,1,.48,1.39.36.41.78.74,1.25.98.57.31,1.17.56,1.78.75.67.22,1.35.47,2.05.71.69.25,1.37.55,2.03.88.65.33,1.26.75,1.78,1.25.53.52.97,1.14,1.26,1.84.34.83.51,1.72.48,2.61.01,1-.19,2-.57,2.91-.39.92-.98,1.72-1.73,2.36-.84.71-1.82,1.26-2.87,1.6-1.28.42-2.63.62-3.98.58-.8.01-1.6-.05-2.39-.17-.6-.09-1.18-.22-1.75-.39-.43-.13-.84-.31-1.21-.53-.27-.17-.51-.36-.72-.57-.2-.2-.36-.44-.46-.71-.1-.31-.15-.61-.15-.93-.01-.47.14-.92.44-1.27.29-.33.71-.51,1.16-.5.28.01.56.08.81.19.29.13.65.27,1.07.41.48.17.97.31,1.47.41.67.14,1.36.2,2.05.19.64.01,1.26-.06,1.87-.23.47-.13.9-.33,1.3-.62.33-.24.58-.56.74-.93.17-.37.24-.76.23-1.17.01-.53-.15-1.05-.48-1.47-.34-.42-.78-.78-1.26-1.02-.57-.31-1.17-.56-1.78-.78-.66-.22-1.35-.47-2.03-.72s-1.37-.56-2.03-.88c-.65-.32-1.26-.74-1.78-1.23-.53-.51-.97-1.12-1.25-1.8-.36-.76-.52-1.63-.5-2.5Z"/>
      <path class="cls-1" d="M101.78,44.85c.04.62-.17,1.22-.57,1.69-.5.43-1.16.65-1.82.58-.66.06-1.31-.15-1.82-.58-.41-.46-.62-1.07-.58-1.69v-11.53c.14-1.64-.28-3.28-1.18-4.65-.8-.97-2.01-1.51-3.27-1.46-.42,0-.83.05-1.23.15-.36.09-.71.23-1.03.41-.31.18-.61.38-.88.61-.27.22-.52.46-.75.71-.51.55-.94,1.18-1.27,1.86v13.9c.04.62-.18,1.23-.58,1.69-.5.43-1.14.65-1.8.58-.66.06-1.31-.15-1.82-.58-.41-.46-.62-1.07-.58-1.69v-19.44c-.04-.57.15-1.14.52-1.58.38-.39.93-.6,1.47-.56.28,0,.57.04.84.13.24.08.46.2.64.38.19.18.33.41.41.65.1.29.19.58.23.89l.19,1.39h.06c.44-.7.99-1.31,1.61-1.84.29-.24.61-.47.93-.67.37-.23.78-.42,1.18-.57.46-.18.93-.32,1.41-.41.55-.11,1.09-.17,1.65-.17,1.14-.03,2.27.19,3.34.64.98.42,1.84,1.04,2.54,1.84.74.88,1.3,1.91,1.61,3.01.39,1.35.58,2.73.56,4.13v12.19h-.01Z"/>
    </g>
  </g>
</svg>